<svg width="139" height="354" viewBox="0 0 139 354" fill="none" xmlns="http://www.w3.org/2000/svg">
<path d="M105.683 104.042L106.542 103.175C96.6078 93.4594 83.428 87.8728 69.8745 87.6328C56.3211 87.3928 43.4926 92.5189 34.1848 101.894L35.0964 102.797C44.1761 93.6508 56.6903 88.6493 69.9121 88.8826C83.1339 89.1158 95.9916 94.5647 105.683 104.042Z" fill="#2E2B64"/>
<path d="M121.564 88.0082L122.423 87.1415C108.013 73.0003 88.8719 64.8576 69.1791 64.492C49.4863 64.1264 30.8427 71.5677 17.3203 85.1903L18.2319 86.0932C31.5272 72.7015 49.8563 65.3863 69.2168 65.7451C88.5773 66.1039 107.396 74.1075 121.564 88.0082Z" fill="#2E2B64"/>
<path d="M137.878 71.5367L138.737 70.67C99.2669 31.7911 37.0925 30.5855 1.1289e-05 68.0353L0.911607 68.9382C37.532 31.9651 98.9099 33.1544 137.878 71.5367Z" fill="#2E2B64"/>
<path d="M121.787 186.14H120.582V153.114C120.582 148.045 118.568 143.183 114.983 139.598C111.399 136.014 106.537 134 101.467 134H31.4978C28.9877 134 26.5021 134.494 24.1831 135.455C21.864 136.416 19.7568 137.823 17.9819 139.598C16.207 141.373 14.799 143.481 13.8384 145.8C12.8778 148.119 12.3834 150.604 12.3834 153.114V334.296C12.3834 336.806 12.8778 339.292 13.8384 341.611C14.7989 343.93 16.2069 346.037 17.9818 347.812C19.7568 349.587 21.8639 350.995 24.183 351.956C26.502 352.916 28.9876 353.411 31.4977 353.411H101.467C103.977 353.411 106.463 352.916 108.782 351.956C111.101 350.995 113.208 349.587 114.983 347.812C116.758 346.037 118.166 343.93 119.127 341.611C120.087 339.292 120.582 336.806 120.582 334.296V209.648H121.787V186.14Z" fill="#3F3D56"/>
<path d="M102.095 139.425H92.9612C93.3812 140.455 93.5416 141.572 93.4281 142.678C93.3146 143.785 92.9308 144.846 92.3105 145.769C91.6902 146.692 90.8524 147.448 89.8709 147.971C88.8894 148.494 87.7944 148.768 86.6823 148.768H46.5976C45.4855 148.768 44.3905 148.494 43.409 147.971C42.4275 147.448 41.5897 146.692 40.9694 145.769C40.3491 144.846 39.9653 143.785 39.8518 142.678C39.7383 141.572 39.8987 140.455 40.3187 139.425H31.7881C28.0023 139.425 24.3716 140.929 21.6946 143.606C19.0176 146.283 17.5137 149.914 17.5137 153.699V334.615C17.5137 336.49 17.8829 338.346 18.6003 340.078C19.3176 341.81 20.3691 343.383 21.6946 344.709C23.0201 346.034 24.5937 347.086 26.3255 347.803C28.0574 348.52 29.9136 348.89 31.7881 348.89H102.095C105.88 348.89 109.511 347.386 112.188 344.709C114.865 342.032 116.369 338.401 116.369 334.615V153.699C116.369 151.825 116 149.969 115.282 148.237C114.565 146.505 113.514 144.931 112.188 143.606C110.863 142.28 109.289 141.229 107.557 140.512C105.825 139.794 103.969 139.425 102.095 139.425Z" fill="white"/>
<path d="M68.4938 225.053C68.7465 218.808 72.9734 218.268 76.9263 217.645C81.9086 217.122 86.2824 218.643 87.287 221.118C87.6769 222.169 87.766 223.069 87.8313 223.956C88.1144 224.514 88.5182 224.51 88.9053 224.584C92.2429 223.649 93.2282 222.196 93.9664 220.688C95.1239 217.677 92.989 215.656 90.2352 213.821C85.6714 211.969 80.8345 211.711 75.8389 212.38L68.2137 213.695C64.3157 214.536 60.858 214.243 57.9421 212.557L56.4141 211.805C55.0845 211.908 54.6461 212.566 54.5219 213.419C54.0283 215.163 54.7012 216.829 56.8456 218.398C59.9878 220.539 61.9885 222.711 61.7306 224.946L68.4938 225.053Z" fill="black"/>
<path d="M68.5577 224.744C68.8094 218.734 73.0098 218.215 76.938 217.615C81.8893 217.111 86.2355 218.574 87.2336 220.956C87.6209 221.968 87.7094 222.833 87.7742 223.687C88.0555 224.224 88.4567 224.22 88.8414 224.291C92.1582 223.391 93.1375 221.992 93.8712 220.542C95.0217 217.644 92.9004 215.699 90.164 213.933C85.6289 212.151 80.8224 211.903 75.858 212.547L68.2804 213.814C64.4067 214.623 60.9707 214.342 58.0732 212.72L56.5549 211.996C55.2335 212.095 54.7979 212.729 54.6743 213.55C54.1837 215.228 54.8522 216.832 56.983 218.341C60.1054 220.401 62.0933 222.491 61.8368 224.642L68.5577 224.744Z" fill="black"/>
<path d="M68.5577 224.744C68.8094 218.734 73.0098 218.215 76.938 217.615C81.8893 217.111 86.2355 218.574 87.2336 220.956C87.6209 221.968 87.7094 222.833 87.7742 223.687C88.0555 224.224 88.4567 224.22 88.8414 224.291C92.1582 223.391 93.1375 221.992 93.8712 220.542C95.0217 217.644 92.9004 215.699 90.164 213.933C85.6289 212.151 80.8224 211.903 75.858 212.547L68.2804 213.814C64.4067 214.623 60.9707 214.342 58.0732 212.72L56.5549 211.996C55.2335 212.095 54.7979 212.729 54.6743 213.55C54.1837 215.228 54.8522 216.832 56.983 218.341C60.1054 220.401 62.0933 222.491 61.8368 224.642L68.5577 224.744Z" fill="black"/>
<path d="M62.7236 311.009L69.1851 310.869C69.3255 311.648 69.4993 312.492 68.4381 313.085C66.8911 313.922 65.3014 314.52 63.3675 313.203C62.311 312.444 62.6538 311.719 62.7237 311.009L62.7236 311.009Z" fill="#2B1100"/>
<path d="M63.0416 311.051L68.8656 310.881C69.058 311.701 69.4499 312.572 68.4373 313.086C66.8903 313.922 65.3005 314.52 63.3666 313.203C62.386 312.544 62.8202 311.791 63.0417 311.051L63.0416 311.051Z" fill="black"/>
<path d="M68.5343 226.18L69.2558 310.914C68.1796 311.952 63.6175 312.034 62.6994 311.055L62.25 226.235C64.3428 225.504 66.438 225.687 68.5343 226.18L68.5343 226.18Z" fill="black"/>
<path d="M68.79 295.147C66.8387 295.449 64.8594 295.602 62.7811 295.257L62.8473 307.881C64.9272 308.229 66.9283 308.061 68.8922 307.665L68.7899 295.147L68.79 295.147Z" fill="black"/>
<path d="M69.1201 295.271C67.0079 295.567 64.8653 295.718 62.6159 295.38L62.6838 307.752C64.9351 308.093 67.1012 307.928 69.2272 307.539L69.1201 295.27L69.1201 295.271Z" fill="black"/>
<path d="M68.5806 262.844C66.69 264.42 64.7699 265.869 62.817 267.17L62.8392 272.627C64.865 271.641 66.7697 270.351 68.6208 268.928L68.5806 262.844L68.5806 262.844Z" fill="black"/>
<path d="M68.663 273.502C66.8035 275.123 64.8987 276.554 62.8692 277.468L62.8978 284.011C64.9149 282.799 66.8361 281.327 68.7068 279.718L68.663 273.502L68.663 273.502Z" fill="black"/>
<path d="M68.3583 235.066C66.358 236.401 64.4826 237.874 62.6756 239.421L62.6942 243.598C64.3139 241.826 66.2374 240.285 68.3823 238.915L68.3582 235.066L68.3583 235.066Z" fill="black"/>
<path d="M68.4258 243.773C66.3971 244.942 64.4625 246.315 62.7205 248.097L62.7392 252.334C64.5915 250.733 66.4868 249.228 68.4539 247.871L68.4259 243.773L68.4258 243.773Z" fill="black"/>
<path d="M68.6218 236.36C66.4051 237.355 64.3265 238.452 62.3237 239.604L62.3398 242.71C64.1356 241.39 66.2674 240.242 68.6442 239.222L68.6216 236.36L68.6218 236.36ZM68.6927 244.801C66.4447 245.694 64.3007 246.743 62.3698 248.103L62.3863 251.334C64.4392 250.111 66.5398 248.961 68.7196 247.925L68.6927 244.801L68.6927 244.801ZM68.86 264.288C66.7644 265.446 64.6364 266.511 62.4723 267.468L62.491 271.472C64.7357 270.746 66.8464 269.797 68.8979 268.751L68.86 264.288L68.86 264.288ZM68.9475 274.721C66.8867 275.986 64.7756 277.104 62.5272 277.819L62.5527 282.92C64.7879 281.973 66.9169 280.823 68.9902 279.567L68.9476 274.721L68.9475 274.721Z" fill="black"/>
<path opacity="0.3864" d="M68.6218 236.36C66.4051 237.355 64.3265 238.452 62.3237 239.604L62.3398 242.71C64.1356 241.39 66.2674 240.242 68.6442 239.222L68.6216 236.36L68.6218 236.36ZM68.6927 244.801C66.4447 245.694 64.3007 246.743 62.3698 248.103L62.3863 251.334C64.4392 250.111 66.5398 248.961 68.7196 247.925L68.6927 244.801L68.6927 244.801ZM68.86 264.288C66.7644 265.446 64.6364 266.511 62.4723 267.468L62.491 271.472C64.7357 270.746 66.8464 269.797 68.8979 268.751L68.86 264.288L68.86 264.288ZM68.9475 274.721C66.8867 275.986 64.7756 277.104 62.5272 277.819L62.5527 282.92C64.7879 281.973 66.9169 280.823 68.9902 279.567L68.9476 274.721L68.9475 274.721Z" fill="black"/>
<g opacity="0.7462" filter="url(#filter0_f)">
<path d="M64.4345 218.885C62.8615 218.899 61.2006 219.278 59.4324 220.127C61.0119 221.608 61.8945 223.108 61.7187 224.638L68.4422 224.745C68.5249 222.695 69.0322 221.261 69.8205 220.238C68.1193 219.384 66.3393 218.868 64.4345 218.885L64.4345 218.885Z" fill="black"/>
</g>
<path d="M64.551 219.089C62.9779 219.103 61.3172 219.469 59.5487 220.289C61.1282 221.718 62.0106 223.166 61.8346 224.642L68.5582 224.745C68.641 222.766 69.1485 221.381 69.9369 220.394C68.2356 219.57 66.4558 219.073 64.551 219.089L64.551 219.089Z" fill="#2B1100"/>
<path opacity="0.1742" d="M64.4364 219.09C62.8633 219.103 61.2026 219.469 59.4341 220.289C61.0136 221.718 61.896 223.166 61.72 224.642L68.4436 224.745C68.5264 222.766 69.0339 221.382 69.8223 220.394C68.121 219.571 66.3412 219.073 64.4364 219.09L64.4364 219.09Z" fill="black"/>
<path opacity="0.5758" d="M64.4364 219.09C62.8633 219.103 61.2026 219.469 59.4341 220.289C61.0136 221.718 61.896 223.166 61.72 224.642L68.4436 224.745C68.5264 222.766 69.0339 221.382 69.8223 220.394C68.121 219.571 66.3412 219.073 64.4364 219.09L64.4364 219.09Z" fill="black"/>
<path d="M62.3302 226.846C62.204 225.492 68.6394 226.023 68.3727 226.611C69.2698 226.568 68.659 224.562 68.3469 224.379C67.9399 223.938 62.3248 223.808 61.8768 224.561C61.5103 225.708 61.5998 226.998 62.3303 226.846L62.3302 226.846Z" fill="black"/>
<path d="M62.19 226.599C62.0577 225.467 68.8433 225.906 68.5617 226.399C69.5077 226.362 68.8648 224.684 68.5358 224.532C68.107 224.163 62.186 224.058 61.7131 224.688C61.3259 225.648 61.4195 226.727 62.1899 226.599L62.19 226.599Z" fill="black"/>
<path d="M51.366 164.76V174H49.728V166.286L47.488 174H46.396L44.156 166.258V174H42.84V164.76H45.304L47.166 171.41L49.014 164.76H51.366ZM46.648 181.76L49.042 191H47.39L46.83 188.648H44.086L43.54 191H42L44.562 181.76H46.648ZM44.338 187.612H46.592L45.458 182.81L44.338 187.612Z" fill="#6C63FF"/>
<path d="M56.4132 166.58C57.4586 166.58 58.2332 166.921 58.7372 167.602C59.2412 168.274 59.4932 169.184 59.4932 170.332C59.4932 171.555 59.2506 172.525 58.7652 173.244C58.2799 173.953 57.4959 174.308 56.4132 174.308C55.3492 174.308 54.5699 173.967 54.0752 173.286C53.5899 172.605 53.3472 171.667 53.3472 170.472C53.3472 169.315 53.5992 168.377 54.1032 167.658C54.6072 166.939 55.3772 166.58 56.4132 166.58ZM56.4132 173.468C56.9919 173.468 57.3699 173.183 57.5472 172.614C57.7246 172.045 57.8132 171.307 57.8132 170.402C57.8132 169.571 57.7152 168.867 57.5192 168.288C57.3326 167.709 56.9639 167.42 56.4132 167.42C55.4892 167.42 55.0272 168.414 55.0272 170.402C55.0272 171.307 55.1112 172.045 55.2792 172.614C55.4566 173.183 55.8346 173.468 56.4132 173.468ZM66.5622 166.86L64.4762 174H62.5722L60.6402 166.86H62.2362L63.6642 173.062L65.0922 166.86H66.5622ZM72.6785 172.026C72.8932 172.129 73.0005 172.329 73.0005 172.628C73.0005 172.964 72.8885 173.263 72.6645 173.524C72.4405 173.776 72.1512 173.967 71.7965 174.098C71.4418 174.238 71.0825 174.308 70.7185 174.308C69.6918 174.308 68.9312 173.977 68.4365 173.314C67.9418 172.642 67.6945 171.741 67.6945 170.612C67.6945 169.408 67.9605 168.437 68.4925 167.7C69.0338 166.953 69.8505 166.58 70.9425 166.58C71.6332 166.58 72.1885 166.762 72.6085 167.126C73.0285 167.481 73.2385 167.985 73.2385 168.638C73.2385 169.45 72.9538 170.019 72.3845 170.346C71.8245 170.673 71.0592 170.836 70.0885 170.836C69.8178 170.836 69.5612 170.827 69.3185 170.808C69.3465 171.545 69.4678 172.133 69.6825 172.572C69.9065 173.011 70.2985 173.23 70.8585 173.23C71.2692 173.23 71.6285 173.127 71.9365 172.922C72.2538 172.707 72.5012 172.409 72.6785 172.026ZM70.7185 167.378C70.2145 167.378 69.8598 167.644 69.6545 168.176C69.4492 168.699 69.3372 169.343 69.3185 170.108C69.5985 170.127 69.8038 170.136 69.9345 170.136C71.1105 170.136 71.6985 169.665 71.6985 168.722C71.6985 168.339 71.6145 168.022 71.4465 167.77C71.2878 167.509 71.0452 167.378 70.7185 167.378ZM52.933 184.322C52.653 184.322 52.429 184.397 52.261 184.546C52.093 184.686 52.009 184.891 52.009 185.162C52.009 185.526 52.1303 185.825 52.373 186.058C52.625 186.282 53.0077 186.534 53.521 186.814C53.9317 187.038 54.2583 187.239 54.501 187.416C54.753 187.593 54.9677 187.822 55.145 188.102C55.3223 188.373 55.411 188.704 55.411 189.096C55.411 189.805 55.1543 190.351 54.641 190.734C54.137 191.117 53.493 191.308 52.709 191.308C52.0277 191.308 51.4537 191.191 50.987 190.958C50.5297 190.725 50.301 190.337 50.301 189.796C50.301 189.479 50.399 189.236 50.595 189.068C50.791 188.9 51.057 188.816 51.393 188.816C51.6357 188.816 51.8223 188.867 51.953 188.97C51.8783 189.194 51.841 189.404 51.841 189.6C51.841 189.899 51.9343 190.137 52.121 190.314C52.3077 190.482 52.5597 190.566 52.877 190.566C53.2223 190.566 53.4837 190.477 53.661 190.3C53.8477 190.113 53.941 189.843 53.941 189.488C53.941 189.124 53.815 188.83 53.563 188.606C53.3203 188.373 52.9423 188.116 52.429 187.836C52.0183 187.603 51.687 187.397 51.435 187.22C51.1923 187.043 50.9823 186.819 50.805 186.548C50.6277 186.268 50.539 185.932 50.539 185.54C50.539 184.915 50.791 184.434 51.295 184.098C51.799 183.753 52.4103 183.58 53.129 183.58C53.7917 183.58 54.333 183.701 54.753 183.944C55.1823 184.177 55.397 184.565 55.397 185.106C55.397 185.423 55.2943 185.666 55.089 185.834C54.893 186.002 54.627 186.086 54.291 186.086C54.0483 186.086 53.8617 186.035 53.731 185.932C53.8057 185.708 53.843 185.498 53.843 185.302C53.843 184.994 53.7637 184.756 53.605 184.588C53.4557 184.411 53.2317 184.322 52.933 184.322ZM59.8537 184.322C59.5737 184.322 59.3497 184.397 59.1817 184.546C59.0137 184.686 58.9297 184.891 58.9297 185.162C58.9297 185.526 59.0511 185.825 59.2937 186.058C59.5457 186.282 59.9284 186.534 60.4417 186.814C60.8524 187.038 61.1791 187.239 61.4217 187.416C61.6737 187.593 61.8884 187.822 62.0657 188.102C62.2431 188.373 62.3317 188.704 62.3317 189.096C62.3317 189.805 62.0751 190.351 61.5617 190.734C61.0577 191.117 60.4137 191.308 59.6297 191.308C58.9484 191.308 58.3744 191.191 57.9077 190.958C57.4504 190.725 57.2217 190.337 57.2217 189.796C57.2217 189.479 57.3197 189.236 57.5157 189.068C57.7117 188.9 57.9777 188.816 58.3137 188.816C58.5564 188.816 58.7431 188.867 58.8737 188.97C58.7991 189.194 58.7617 189.404 58.7617 189.6C58.7617 189.899 58.8551 190.137 59.0417 190.314C59.2284 190.482 59.4804 190.566 59.7977 190.566C60.1431 190.566 60.4044 190.477 60.5817 190.3C60.7684 190.113 60.8617 189.843 60.8617 189.488C60.8617 189.124 60.7357 188.83 60.4837 188.606C60.2411 188.373 59.8631 188.116 59.3497 187.836C58.9391 187.603 58.6077 187.397 58.3557 187.22C58.1131 187.043 57.9031 186.819 57.7257 186.548C57.5484 186.268 57.4597 185.932 57.4597 185.54C57.4597 184.915 57.7117 184.434 58.2157 184.098C58.7197 183.753 59.3311 183.58 60.0497 183.58C60.7124 183.58 61.2537 183.701 61.6737 183.944C62.1031 184.177 62.3177 184.565 62.3177 185.106C62.3177 185.423 62.2151 185.666 62.0097 185.834C61.8137 186.002 61.5477 186.086 61.2117 186.086C60.9691 186.086 60.7824 186.035 60.6517 185.932C60.7264 185.708 60.7637 185.498 60.7637 185.302C60.7637 184.994 60.6844 184.756 60.5257 184.588C60.3764 184.411 60.1524 184.322 59.8537 184.322ZM65.2904 180.92C65.5984 180.92 65.8458 180.995 66.0324 181.144C66.2284 181.293 66.3264 181.508 66.3264 181.788C66.3264 182.077 66.2238 182.301 66.0184 182.46C65.8224 182.609 65.5658 182.684 65.2484 182.684C64.9404 182.684 64.6931 182.609 64.5064 182.46C64.3198 182.311 64.2264 182.096 64.2264 181.816C64.2264 181.527 64.3244 181.307 64.5204 181.158C64.7258 180.999 64.9824 180.92 65.2904 180.92ZM66.0184 189.852C66.0184 190.309 66.1631 190.617 66.4524 190.776C66.3778 190.916 66.2564 191.023 66.0884 191.098C65.9204 191.173 65.7384 191.21 65.5424 191.21C65.1878 191.21 64.9218 191.107 64.7444 190.902C64.5671 190.697 64.4784 190.407 64.4784 190.034V183.86H66.0184V189.852ZM70.8924 184.322C70.6124 184.322 70.3884 184.397 70.2204 184.546C70.0524 184.686 69.9684 184.891 69.9684 185.162C69.9684 185.526 70.0897 185.825 70.3324 186.058C70.5844 186.282 70.9671 186.534 71.4804 186.814C71.8911 187.038 72.2177 187.239 72.4604 187.416C72.7124 187.593 72.9271 187.822 73.1044 188.102C73.2817 188.373 73.3704 188.704 73.3704 189.096C73.3704 189.805 73.1137 190.351 72.6004 190.734C72.0964 191.117 71.4524 191.308 70.6684 191.308C69.9871 191.308 69.4131 191.191 68.9464 190.958C68.4891 190.725 68.2604 190.337 68.2604 189.796C68.2604 189.479 68.3584 189.236 68.5544 189.068C68.7504 188.9 69.0164 188.816 69.3524 188.816C69.5951 188.816 69.7817 188.867 69.9124 188.97C69.8377 189.194 69.8004 189.404 69.8004 189.6C69.8004 189.899 69.8937 190.137 70.0804 190.314C70.2671 190.482 70.5191 190.566 70.8364 190.566C71.1817 190.566 71.4431 190.477 71.6204 190.3C71.8071 190.113 71.9004 189.843 71.9004 189.488C71.9004 189.124 71.7744 188.83 71.5224 188.606C71.2797 188.373 70.9017 188.116 70.3884 187.836C69.9777 187.603 69.6464 187.397 69.3944 187.22C69.1517 187.043 68.9417 186.819 68.7644 186.548C68.5871 186.268 68.4984 185.932 68.4984 185.54C68.4984 184.915 68.7504 184.434 69.2544 184.098C69.7584 183.753 70.3697 183.58 71.0884 183.58C71.7511 183.58 72.2924 183.701 72.7124 183.944C73.1417 184.177 73.3564 184.565 73.3564 185.106C73.3564 185.423 73.2537 185.666 73.0484 185.834C72.8524 186.002 72.5864 186.086 72.2504 186.086C72.0077 186.086 71.8211 186.035 71.6904 185.932C71.7651 185.708 71.8024 185.498 71.8024 185.302C71.8024 184.994 71.7231 184.756 71.5644 184.588C71.4151 184.411 71.1911 184.322 70.8924 184.322ZM74.6911 184.49L74.6771 184.07C75.0971 183.902 75.4938 183.678 75.8671 183.398C76.2498 183.118 76.5718 182.81 76.8331 182.474H77.2671V183.86H78.5551V184.49H77.2391V189.586C77.2391 189.866 77.2904 190.076 77.3931 190.216C77.4958 190.356 77.6591 190.445 77.8831 190.482C77.8364 190.697 77.7104 190.869 77.5051 191C77.3091 191.14 77.0804 191.21 76.8191 191.21C76.0631 191.21 75.6851 190.781 75.6851 189.922V184.49H74.6911ZM84.0313 190.356C83.8539 190.683 83.5926 190.921 83.2473 191.07C82.9113 191.229 82.5286 191.308 82.0993 191.308C81.4553 191.308 80.9139 191.112 80.4753 190.72C80.0459 190.328 79.8313 189.819 79.8313 189.194C79.8313 187.682 81.1799 186.926 83.8773 186.926V185.708C83.8773 185.241 83.8073 184.896 83.6673 184.672C83.5273 184.439 83.2613 184.322 82.8693 184.322C82.5426 184.322 82.2719 184.411 82.0573 184.588C81.8426 184.756 81.7353 184.994 81.7353 185.302C81.7353 185.498 81.7726 185.708 81.8473 185.932C81.7166 186.035 81.5299 186.086 81.2873 186.086C80.9513 186.086 80.6853 186.002 80.4893 185.834C80.2933 185.666 80.1953 185.423 80.1953 185.106C80.1953 184.658 80.4473 184.294 80.9513 184.014C81.4553 183.725 82.1273 183.58 82.9673 183.58C83.5833 183.58 84.0686 183.673 84.4233 183.86C84.7779 184.037 85.0299 184.317 85.1793 184.7C85.3379 185.073 85.4173 185.577 85.4173 186.212V189.852C85.4173 190.309 85.5619 190.617 85.8513 190.776C85.7766 190.916 85.6646 191.023 85.5153 191.098C85.3753 191.173 85.2119 191.21 85.0253 191.21C84.7546 191.21 84.5306 191.135 84.3533 190.986C84.1759 190.827 84.0686 190.617 84.0313 190.356ZM82.6453 190.37C83.0559 190.37 83.3639 190.216 83.5693 189.908C83.7746 189.591 83.8773 189.199 83.8773 188.732V187.626C82.2999 187.626 81.5113 188.13 81.5113 189.138C81.5113 189.511 81.6093 189.81 81.8053 190.034C82.0106 190.258 82.2906 190.37 82.6453 190.37ZM87.9373 183.86L89.2253 183.692L89.2953 184.952C89.4726 184.504 89.7433 184.163 90.1073 183.93C90.4806 183.697 90.9146 183.58 91.4093 183.58C92.1933 183.58 92.7393 183.799 93.0473 184.238C93.3553 184.667 93.5093 185.325 93.5093 186.212V189.852C93.5093 190.309 93.6539 190.617 93.9433 190.776C93.8686 190.916 93.7473 191.023 93.5793 191.098C93.4113 191.173 93.2339 191.21 93.0473 191.21C92.6833 191.21 92.4126 191.107 92.2353 190.902C92.0579 190.697 91.9693 190.407 91.9693 190.034V186.408C91.9693 185.82 91.9039 185.381 91.7733 185.092C91.6426 184.803 91.3533 184.658 90.9053 184.658C90.3359 184.658 89.9533 184.91 89.7573 185.414C89.5706 185.918 89.4773 186.567 89.4773 187.36V191H87.9373V183.86ZM95.1798 184.49L95.1658 184.07C95.5858 183.902 95.9824 183.678 96.3558 183.398C96.7384 183.118 97.0604 182.81 97.3218 182.474H97.7558V183.86H99.0438V184.49H97.7278V189.586C97.7278 189.866 97.7791 190.076 97.8818 190.216C97.9844 190.356 98.1478 190.445 98.3718 190.482C98.3251 190.697 98.1991 190.869 97.9938 191C97.7978 191.14 97.5691 191.21 97.3078 191.21C96.5518 191.21 96.1738 190.781 96.1738 189.922V184.49H95.1798Z" fill="#817D88"/>
<defs>
<filter id="filter0_f" x="57.6306" y="217.083" width="13.9918" height="9.4637" filterUnits="userSpaceOnUse" color-interpolation-filters="sRGB">
<feFlood flood-opacity="0" result="BackgroundImageFix"/>
<feBlend mode="normal" in="SourceGraphic" in2="BackgroundImageFix" result="shape"/>
<feGaussianBlur stdDeviation="0.900904" result="effect1_foregroundBlur"/>
</filter>
</defs>
</svg>
