<svg width="197" height="197" viewBox="0 0 197 197" fill="none" xmlns="http://www.w3.org/2000/svg">
<path d="M98.5 0C44.1832 0 6.10977e-05 44.1832 6.10977e-05 98.5C-0.0154658 112.404 2.92861 126.152 8.63657 138.83C24.0735 173.092 58.5405 197 98.5 197C124.619 196.986 149.665 186.603 168.134 168.134C186.603 149.665 196.986 124.619 197 98.5C197 44.1832 152.809 0 98.5 0ZM179.995 138.097C172.557 153.384 160.973 166.273 146.564 175.294C132.155 184.315 115.5 189.106 98.5 189.12C60.1008 189.12 27.2018 165.11 14.0343 131.312C9.95348 120.855 7.86614 109.726 7.88008 98.5C7.88008 48.5329 48.533 7.88 98.5 7.88C148.467 7.88 189.12 48.5329 189.12 98.5C189.137 112.222 186.016 125.766 179.995 138.097Z" fill="#3F3D56"/>
</svg>
