<svg width="191" height="290" viewBox="0 0 191 290" fill="none" xmlns="http://www.w3.org/2000/svg">
<path d="M39.9955 102.555C29.4856 106.417 22.9806 110.675 17.9853 116.91C14.6039 121.383 11.888 128.764 12.3248 132.722C12.7109 136.22 11.4907 139.988 8.89911 143.815C5.85804 148.25 4.84862 152.368 5.68673 156.841C6.17182 159.676 6.97434 160.705 9.45424 162.109C13.5874 164.448 18.6068 163.894 27.4699 159.934C35.5126 156.344 43.8233 154.402 48.7945 154.972L52.2889 155.424L53.7137 163.653C55.4611 173.243 58.3232 178.89 62.0589 179.969C65.7947 181.047 68.3037 178.814 71.5809 171.837C73.1719 168.307 74.834 165.421 75.2594 165.374C75.5997 165.337 76.3984 167.112 76.9076 169.385C80.208 182.904 93.0646 194.063 104.335 193.192C111.427 192.689 113.056 187.944 109.178 179.334C106.445 173.3 106.629 172.627 110.807 174.589C119.428 178.575 129.097 187.384 135.489 196.928C140.647 204.651 146.741 218.513 146.994 223.144C147.115 226.578 146.975 226.873 144.143 227.745C135.043 230.333 128.481 239.536 129.156 248.779C129.653 255.619 133.596 257.792 138.154 253.842C139.798 252.356 140.469 252.189 142.282 253.014C143.725 253.6 145.797 253.651 148.308 253.001C150.895 252.249 152.797 252.319 154.165 253.007C155.267 253.63 157.74 254.196 159.653 254.357C168.939 255.01 174.721 259.03 176.514 265.913C177.693 270.349 180.074 272.415 183.256 271.598C185.107 271.208 185.931 270.092 187.226 266.222C189.482 259.358 188.898 250.943 185.659 244.22C182.967 238.554 174.866 230.69 166.97 226.25L162.551 223.663L162.669 219.271C163.436 191.887 156.538 160.597 144.694 138.331C143.399 135.958 142.353 132.72 142.371 131.32C142.352 128.807 142.587 128.594 146.96 127.646C149.481 127.088 152.058 126.245 152.613 125.811C155.282 123.466 150.417 114.5 143.862 109.726C139.372 106.494 130.598 103.456 124.351 103.028C121.142 102.823 114.826 103.334 109.497 104.201L100.21 105.879L90.5201 103.128C85.1819 101.574 76.9105 99.9713 72.0346 99.4845C62.0274 98.5392 47.204 99.9888 39.9955 102.555ZM76.8471 104.078C99.1102 106.838 117.929 118.178 131.945 137.502C134.478 140.95 137.63 146.099 138.986 149.024C142.255 156.024 142.77 155.222 139.725 147.917C133.404 132.776 121.712 118.133 111.337 112.291C109.037 110.96 107.344 109.657 107.643 109.251C109.002 107.517 130.494 107.195 132.494 108.931C132.695 109.188 128.866 109.611 123.901 109.879C118.171 110.232 114.958 110.773 115.03 111.417C115.08 111.877 116.519 113.209 118.193 114.329C120.883 116.082 122.02 116.236 128.816 115.393C134.26 114.792 137.544 114.895 140.048 115.737C144.069 117.064 147.818 119.818 148.021 121.659C148.184 123.132 143.94 123.693 139.544 122.874C132.855 121.562 132.155 125.366 137.132 135.346C140.225 141.526 147.719 157.936 148.389 160.099C148.64 160.816 150.033 164.855 151.446 169.078C158.201 188.924 160.53 211.588 157.442 227.302L156.176 233.777L159.851 234.303C168.357 235.694 174.313 238.95 178.356 244.374C181.893 249.108 184.532 258.972 183.644 264.195C183.06 268.266 181.8 269.336 180.645 266.669C177.053 258.307 171.389 253.808 162.247 252.115C157.055 251.104 153.462 248.984 153.208 246.683C152.985 244.658 152.005 245.139 150.002 248.062C148.354 250.294 147.704 250.645 144.665 250.421C142.668 250.269 139.49 250.34 137.533 250.556C133.609 250.896 133.303 250.464 133.109 244.802C133 239.13 138.413 234.34 147.234 232.342L152.523 231.106L151.271 224.442C150.524 220.798 149.23 216.096 148.316 214.054C144.468 205.72 148.47 210.776 153.647 221.012C154.521 222.686 154.573 220.817 153.754 212.615C152.496 198.871 152.485 198.779 149.353 189.901C143.373 172.392 131.947 157.814 114.644 145.375C105.769 139.087 104.102 138.805 110.534 144.803C113.707 147.807 117.648 152.311 119.314 154.922L122.425 159.703L116.401 155.057C110.272 150.236 102.713 146.505 99.6504 146.843C97.9489 147.031 97.959 147.123 99.9831 148.297C102.378 149.71 102.717 152.002 101.584 157.345C100.691 161.729 101.475 170.401 103.327 176.253C106.381 185.978 106.371 185.886 104.461 187.308C99.4465 191.029 90.6265 178.213 83.3287 156.564C79.8634 146.232 77.8748 142.258 76.007 141.719C73.6934 141.043 79.424 140.69 81.9178 141.44C84.1361 142.033 84.2111 141.932 82.973 140.857C80.4017 138.625 71.2592 136.932 65.8246 137.625C60.7302 138.281 54.0664 140.321 57.4999 140.221C59.9023 140.142 67.9109 143.265 69.5502 144.854C71.2098 146.628 71.38 146.609 62.6286 145.339C49.4165 143.443 43.0626 145.169 26.0159 155.343C19.3102 159.344 14.4673 160.717 11.9976 159.405C11.1811 159.03 12.6617 158.4 15.8539 157.675C21.493 156.494 27.3377 152.495 32.258 146.361C34.6109 143.493 35.0198 142.516 34.0674 141.689C33.2103 140.945 32.4103 141.5 30.5679 144.312C27.4519 148.848 22.2332 153.058 17.1211 155.113C13.4895 156.539 12.9689 156.503 11.1696 155.025C9.44524 153.445 9.4046 153.076 10.1855 150.009C11.2254 146.167 14.5077 142.357 17.7444 141.255C20.3207 140.411 20.6242 139.26 18.5862 138.739C16.0923 137.99 18.6318 129.79 23.4264 123.297C28.0813 117.1 28.1258 116.723 24.6911 119.151C21.8214 121.238 18.3715 126.651 17.3417 130.584C16.1279 135.191 15.0054 134.383 15.9437 129.62C17.8749 119.811 26.8013 111.744 40.5238 107.341C49.0935 104.625 67.5104 102.965 76.8471 104.078ZM76.8959 146.652C77.8787 147.755 79.1295 150.506 79.6387 152.779C82.1136 163.5 88.4018 176.782 95.1927 185.256C96.5018 186.975 97.4605 188.64 97.3209 188.935C96.6365 189.756 90.0412 184.614 87.3378 181.185C84.2229 177.15 81.6262 171.567 79.6528 164.61C78.8274 161.813 77.4484 157.12 76.6128 154.231C75.7875 151.433 74.2649 147.781 73.1462 146.228C72.1126 144.665 71.1641 143.092 71.1336 142.816C71.032 141.896 75.1207 144.612 76.8959 146.652ZM66.8672 147.852C71.0283 148.884 73.6707 151.76 74.9647 156.462L75.8612 159.904L70.9865 157.088C63.0706 152.464 56.0716 151.466 43.5211 153.224C37.7563 154.047 33.1419 154.37 33.2714 153.983C33.5508 153.393 38.847 150.665 42.9687 148.999C45.9399 147.833 63.322 146.939 66.8672 147.852ZM112.468 161.547C119.322 165.915 126.801 172.823 130.589 178.275C133.459 182.431 139.098 193.734 138.563 194.352C138.414 194.555 135.411 191.533 131.795 187.646C125.137 180.368 113.766 171.746 108.768 170.155C106.083 169.24 105.883 168.983 105.375 164.38C104.562 157.016 105.062 156.868 112.468 161.547Z" fill="black"/>
<path d="M104 70C108.971 70 113 65.9706 113 61C113 56.0294 108.971 52 104 52C99.0294 52 94.9999 56.0294 94.9999 61C94.9999 65.9706 99.0294 70 104 70Z" fill="black"/>
<path d="M133.235 26C132.918 25.9999 132.607 25.9175 132.335 25.7615C114.95 15.8312 98.0471 15.8312 80.6623 25.7615C80.2607 25.9899 79.781 26.0562 79.3284 25.9458C78.8759 25.8355 78.4875 25.5575 78.2484 25.1729C78.0094 24.7883 77.9393 24.3285 78.0535 23.8944C78.1676 23.4603 78.4568 23.0874 78.8574 22.8575C97.1989 12.3808 115.798 12.3808 134.139 22.8575C134.471 23.047 134.729 23.3357 134.873 23.6793C135.017 24.0228 135.039 24.4022 134.936 24.7591C134.834 25.116 134.612 25.4307 134.304 25.6549C133.997 25.879 133.621 26.0003 133.235 26H133.235Z" fill="black"/>
<path d="M126.238 39C125.921 39.0001 125.611 38.9281 125.339 38.7917C112.325 32.2908 99.6721 32.2908 86.658 38.7917C86.257 38.9912 85.7781 39.0491 85.3263 38.9527C84.8744 38.8564 84.4867 38.6137 84.248 38.2779C84.0094 37.9421 83.9394 37.5406 84.0534 37.1616C84.1674 36.7825 84.456 36.4569 84.856 36.2562C98.8855 29.2479 113.111 29.2479 127.141 36.2562C127.472 36.4217 127.729 36.6738 127.873 36.9737C128.017 37.2737 128.039 37.6049 127.937 37.9165C127.834 38.2281 127.612 38.5029 127.306 38.6986C126.999 38.8944 126.624 39.0003 126.238 39Z" fill="black"/>
<path d="M138.244 10.9985C137.929 10.9986 137.619 10.9162 137.348 10.7599C120.086 0.846151 90.9174 0.846151 73.655 10.7599C73.4571 10.8741 73.2378 10.9496 73.0096 10.982C72.7814 11.0143 72.5488 11.003 72.3252 10.9487C72.1015 10.8943 71.8912 10.798 71.7062 10.6651C71.5212 10.5323 71.3652 10.3656 71.2472 10.1746C71.1291 9.98364 71.0513 9.77207 71.0181 9.55204C70.985 9.332 70.9972 9.10783 71.054 8.89235C71.1109 8.67687 71.2113 8.47431 71.3494 8.29627C71.4876 8.11823 71.6608 7.96819 71.8592 7.85477C90.0952 -2.61825 120.908 -2.61825 139.144 7.85477C139.474 8.0444 139.73 8.33323 139.873 8.6769C140.017 9.02057 140.039 9.40008 139.937 9.75712C139.835 10.1142 139.614 10.429 139.308 10.6533C139.002 10.8775 138.628 10.9988 138.244 10.9985H138.244Z" fill="black"/>
</svg>
